<svg xmlns="http://www.w3.org/2000/svg" viewBox="0 0 318.19 534.05"><defs><style>.cls-1{fill:#fcfcfd;}.cls-2{fill:#fff;}.cls-3{fill:#e8f1f4;}.cls-4{fill:#214155;}.cls-5{fill:#394240;}.cls-6{fill:#232323;}.cls-7{fill:#d52e27;}.cls-8{fill:#ee6826;}.cls-9{fill:#2cc2f6;}.cls-10{fill:#45a9b7;}</style></defs><title>Yes Soft Ai-Character</title><g id="Layer_2" data-name="Layer 2"><g id="Layer_3" data-name="Layer 3"><path class="cls-1" d="M237.81,534.05H205.27A5.68,5.68,0,0,1,202,523.71l14.52-10.05a8.78,8.78,0,0,1,10,0L241,523.71A5.68,5.68,0,0,1,237.81,534.05Z"/><path class="cls-2" d="M282.72,488.44c0-8.18,6.63-8,14.81-8v-5.61l-16,16c-.22.23-2.28-.4-3.66-2.86-6.31-11.2-37.35-39.79-46.5-38.31H210.57c-4.25,0-9.87,1.93-15.75,5-21.7,11.46-29.72,38.58-18.26,60.27h121v-5.85C289.35,509.09,282.72,496.62,282.72,488.44Z"/><path class="cls-2" d="M308.12,476.29c-19.26-9.81-38.4,9.33-28.59,28.59a17,17,0,0,0,7.41,7.41c19.26,9.81,38.4-9.33,28.59-28.59A17,17,0,0,0,308.12,476.29Zm-3.77,27.56c-11.35,6.75-23.13-5-16.38-16.38a7.9,7.9,0,0,1,2.74-2.74c11.36-6.76,23.14,5,16.39,16.38A8,8,0,0,1,304.35,503.85Z"/><path class="cls-2" d="M172.63,488H147.94a8.94,8.94,0,0,1-8.92-8.91v-5.42H124.89v5.42a35.89,35.89,0,0,0,35.89,35.89h25.06V501.18A13.22,13.22,0,0,0,172.63,488Z"/><path class="cls-3" d="M237.81,534.05H205.27A5.68,5.68,0,0,1,202,523.71l14.52-10.05a8.78,8.78,0,0,1,10,0L241,523.71A5.68,5.68,0,0,1,237.81,534.05Z"/><path class="cls-3" d="M282.72,488.44c0,.36,0,.74.06,1.11l9-9C286.48,480.85,282.72,482.29,282.72,488.44Z"/><path class="cls-3" d="M277.85,488c-3.07-5.45-12-15-21.44-23.25-5.81,16.78-16.39,31-26.24,45.77-1,1.49-2,3-3,4.47h70.33v-5.85c-7.82,0-14.21-11.39-14.75-19.54l-1.27,1.26C281.29,491,279.23,490.41,277.85,488Z"/><path class="cls-3" d="M297.53,474.79l-5.71,5.72c1.76-.11,3.69-.11,5.71-.11Z"/><path class="cls-3" d="M277.85,488c-3.07-5.45-12-15-21.44-23.25-5.81,16.78-16.39,31-26.24,45.77-1,1.49-2,3-3,4.47h70.33v-5.85c-7.82,0-14.21-11.39-14.75-19.54l-1.27,1.26C281.29,491,279.23,490.41,277.85,488Z"/><path class="cls-3" d="M282.72,488.44c0,.36,0,.74.06,1.11l9-9C286.48,480.85,282.72,482.29,282.72,488.44Z"/><path class="cls-3" d="M297.53,474.79l-5.71,5.72c1.76-.11,3.69-.11,5.71-.11Z"/><path class="cls-3" d="M299.59,514.83c.2-2.68.43-5.36.76-8,.06-.45.13-.9.2-1.35-10,2.52-18.58-7.89-12.58-18a7.9,7.9,0,0,1,2.74-2.74c5.65-3.36,11.4-2.13,14.92,1.34,1-3.23,1.89-6.46,2.56-9.74l-.07,0c-19.26-9.81-38.4,9.33-28.59,28.59a17,17,0,0,0,7.41,7.41A22.7,22.7,0,0,0,299.59,514.83Z"/><path class="cls-3" d="M183.31,498.47c.85,1.11,1.69,2.25,2.53,3.38v-.67a13.2,13.2,0,0,0-10.34-12.89C178.22,492.08,181.17,495.68,183.31,498.47Z"/><path class="cls-3" d="M160.21,509.57c-4.85-6.43-10.46-13.82-13.89-21.77a8.94,8.94,0,0,1-7.3-8.75v-5.42H124.89v5.42a35.89,35.89,0,0,0,35.89,35.89h3.42Q162.22,512.24,160.21,509.57Z"/><path class="cls-4" d="M99.46,383.69C67.57,280.45,38.78,171.66,0,70.8"/><path class="cls-4" d="M144.65,449.12c29-93.72,83.67-186.56,118.33-278.35"/><path class="cls-4" d="M127.37,436.86C118.16,401.92,120,360.31,108.69,326"/><rect class="cls-2" x="47.63" y="149.05" width="42.72" height="172.44" rx="19.38" ry="19.38" transform="translate(82.95 480.04) rotate(-166.92)"/><path class="cls-3" d="M90.43,151.73l-3.85-.89a19.37,19.37,0,0,0-23.27,14.49l-.89,3.84a30.25,30.25,0,0,1,1.8,11.12,163.78,163.78,0,0,1-2.66,21.6c-.17,1-.64,4.39-.65,4.23-.12,1.06-.25,2.13-.37,3.19-1.15,10.75-1.91,21.55-2.58,32.34-1.28,20.88-2.42,41.73-4.65,62.53-.56,5.18-1.13,10.36-1.74,15.55a19.38,19.38,0,0,0,23.1-14.53L104.92,175A19.37,19.37,0,0,0,90.43,151.73Z"/><path class="cls-2" d="M107,326h50c18.26,0,33.06-15.63,33.06-34.92L200.6,176.56a36.48,36.48,0,0,0-.88-12.5c-3.85-14.78-16.67-25.63-31.88-25.63H96.61c-15.72,0-28.88,11.59-32.23,27.12a36.68,36.68,0,0,0-.56,10.82l10.09,114.7C73.91,310.36,88.71,326,107,326Z"/><path class="cls-3" d="M199.72,164.06c-3.85-14.78-16.67-25.63-31.88-25.63h-29.5a29.19,29.19,0,0,1,0,3c-1.54,44-9.63,183.34-9.48,184.6H157c18.26,0,33.06-15.63,33.06-34.92L200.6,176.56A36.48,36.48,0,0,0,199.72,164.06Z"/><path class="cls-3" d="M77.15,144.79A84.09,84.09,0,0,0,180.66,141a32.94,32.94,0,0,0-12.82-2.59H96.61A32.87,32.87,0,0,0,77.15,144.79Z"/><ellipse class="cls-2" cx="132.22" cy="77.54" rx="81.21" ry="77.54"/><path class="cls-3" d="M65.33,71c2.48-15.39,4.9-30.8,7.39-46.19A75.41,75.41,0,0,0,51,77.54a74.25,74.25,0,0,0,7.83,33.24Q62.1,90.89,65.33,71Z"/><path class="cls-3" d="M145.93,1.12c-2.16,12.21-3.67,24.52-5.72,36.75C137.34,55,134.74,72.2,132,89.36q-5.25,32.52-10.63,65a86.53,86.53,0,0,0,10.87.71c44.85,0,81.21-34.72,81.21-77.55C213.43,39.18,184.25,7.35,145.93,1.12Z"/><ellipse class="cls-5" cx="117.04" cy="77.54" rx="54.23" ry="51.78"/><path class="cls-6" d="M139,30.22c-3.14,17.85-8.26,35.49-11.77,53.18-3,15.23-5.65,30.54-8.13,45.87,29-1.05,52.12-23.8,52.12-51.73C171.26,56.43,158,38.28,139,30.22Z"/><rect class="cls-7" x="78.83" y="70.8" width="62.94" height="13.49" rx="6.74" ry="6.74"/><path class="cls-8" d="M113.93,73.94c.49-1,1.08-2.09,1.71-3.14H85.57a6.75,6.75,0,0,0,0,13.49h23.12C110.51,80.88,112.28,77.44,113.93,73.94Z"/><path class="cls-8" d="M135,70.8h-.22c-1.68,3.29-3.81,6.35-5.41,9.7-.6,1.27-1.21,2.53-1.82,3.79H135a6.75,6.75,0,0,0,0-13.49Z"/><rect class="cls-3" x="173.47" y="149.05" width="42.72" height="172.44" rx="19.38" ry="19.38" transform="translate(-48.19 50.2) rotate(-13.08)"/><path class="cls-9" d="M100.72,101.5a2.51,2.51,0,0,0-2.33,3.39,12.66,12.66,0,0,0,23.81,0,2.51,2.51,0,0,0-2.33-3.39Z"/><path class="cls-10" d="M119.87,101.5h-4.44a17.19,17.19,0,0,1-.17,1.76,28.24,28.24,0,0,1-3.68,9.31l-.11.17c0,.1-.07.21-.12.34l0,.08a12.64,12.64,0,0,0,10.88-8.27A2.51,2.51,0,0,0,119.87,101.5Z"/><path class="cls-4" d="M110.36,443.55C64.33,368.63,41.78,281.42,0,204.05"/><path class="cls-4" d="M136.67,418.77C142,359,173.6,305.6,171.26,245.63"/><rect class="cls-8" x="186.84" y="478.61" width="17.76" height="7.31" rx="3.33" ry="3.33" transform="translate(-286.54 677.99) rotate(-90)"/><path class="cls-7" d="M192.07,478v3.23a7.76,7.76,0,0,1,3-.33c1.45.13,2.91.32,4.36.5V478c0-2.56-1.64-4.63-3.66-4.63S192.07,475.45,192.07,478Z"/><rect class="cls-5" x="205.82" y="472.22" width="38.6" height="20.1" rx="10.05" ry="10.05"/><path class="cls-6" d="M234.37,472.22h-1.63a139.38,139.38,0,0,1-3.07,20.09h4.7a10,10,0,1,0,0-20.09Z"/></g></g></svg>